<svg xmlns="http://www.w3.org/2000/svg" width="480" height="480" viewBox="0 0 127 127"><defs><clipPath clipPathUnits="userSpaceOnUse" id="a"><path d="M180 360C80.589 360 0 279.411 0 180S80.589 0 180 0s180 80.589 180 180-80.589 180-180 180z"/></clipPath><clipPath clipPathUnits="userSpaceOnUse" id="c"><path d="M0 360h360V0H0z"/></clipPath><linearGradient x1="0" y1="0" x2="1" y2="0" gradientUnits="userSpaceOnUse" gradientTransform="matrix(0 -360 -360 0 180 360)" spreadMethod="pad" id="b"><stop offset="0" stop-color="#18adff"/><stop offset="1" stop-color="#0164de"/></linearGradient></defs><g clip-path="url(#a)" transform="matrix(.35278 0 0 -.35278 0 127)"><path d="M180 360C80.589 360 0 279.411 0 180S80.589 0 180 0s180 80.589 180 180-80.589 180-180 180z" fill="url(#b)"/></g><g clip-path="url(#c)" transform="matrix(.35278 0 0 -.35278 0 127)"><path d="M250.066 127.957L258.04 180h-49.917v33.768c0 14.226 6.961 28.122 29.337 28.122h22.706v44.298s-20.605 3.519-40.298 3.519c-41.109 0-67.99-24.91-67.99-70.042V180h-45.716v-52.043h45.715V2.177A180.698 180.698 0 01180 0c9.568 0 18.96.76 28.123 2.177v125.78z" fill="#fefefe"/></g></svg>